<svg xmlns="http://www.w3.org/2000/svg" width="1440" height="900"><path d="M793,460L699,499L680,612Z" fill="#e15ca8" stroke="#e15ca8" stroke-width="1.51"/><path d="M680,612L877,707L793,460Z" fill="#e44c9d" stroke="#e44c9d" stroke-width="1.51"/><path d="M877,707L928,662L793,460Z" fill="#e54095" stroke="#e54095" stroke-width="1.51"/><path d="M680,612L765,791L877,707Z" fill="#e14391" stroke="#e14391" stroke-width="1.51"/><path d="M680,612L664,801L765,791Z" fill="#de4b90" stroke="#de4b90" stroke-width="1.51"/><path d="M928,662L1077,497L793,460Z" fill="#e54497" stroke="#e54497" stroke-width="1.51"/><path d="M1077,497L1034,389L793,460Z" fill="#e44d9e" stroke="#e44d9e" stroke-width="1.51"/><path d="M793,460L606,235L699,499Z" fill="#dc6eb4" stroke="#dc6eb4" stroke-width="1.51"/><path d="M1034,389L811,261L793,460Z" fill="#df62a8" stroke="#df62a8" stroke-width="1.51"/><path d="M680,612L452,664L664,801Z" fill="#de599b" stroke="#de599b" stroke-width="1.51"/><path d="M699,499L452,664L680,612Z" fill="#df60a7" stroke="#df60a7" stroke-width="1.51"/><path d="M392,385L452,664L699,499Z" fill="#d972b2" stroke="#d972b2" stroke-width="1.51"/><path d="M928,662L1164,603L1077,497Z" fill="#e33387" stroke="#e33387" stroke-width="1.51"/><path d="M877,707L1020,853L928,662Z" fill="#e12a7f" stroke="#e12a7f" stroke-width="1.51"/><path d="M765,791L1020,853L877,707Z" fill="#dd317d" stroke="#dd317d" stroke-width="1.51"/><path d="M928,971L1020,853L765,791Z" fill="#d62b73" stroke="#d62b73" stroke-width="1.51"/><path d="M811,261L606,235L793,460Z" fill="#d975b6" stroke="#d975b6" stroke-width="1.51"/><path d="M1199,741L1164,603L928,662Z" fill="#e0237a" stroke="#e0237a" stroke-width="1.51"/><path d="M1077,497L1207,348L1034,389Z" fill="#dd4e92" stroke="#dd4e92" stroke-width="1.51"/><path d="M996,226L829,174L811,261Z" fill="#db76b1" stroke="#db76b1" stroke-width="1.51"/><path d="M811,261L615,150L606,235Z" fill="#d486bf" stroke="#d486bf" stroke-width="1.51"/><path d="M1207,348L996,226L1034,389Z" fill="#db5d9a" stroke="#db5d9a" stroke-width="1.51"/><path d="M1034,389L996,226L811,261Z" fill="#dd67a9" stroke="#dd67a9" stroke-width="1.51"/><path d="M606,235L494,273L699,499Z" fill="#d57fbc" stroke="#d57fbc" stroke-width="1.51"/><path d="M664,801L614,955L765,791Z" fill="#d64883" stroke="#d64883" stroke-width="1.51"/><path d="M432,859L614,955L664,801Z" fill="#d05586" stroke="#d05586" stroke-width="1.51"/><path d="M614,955L850,987L765,791Z" fill="#cf3e7c" stroke="#cf3e7c" stroke-width="1.51"/><path d="M850,987L928,971L765,791Z" fill="#cf3174" stroke="#cf3174" stroke-width="1.51"/><path d="M494,273L392,385L699,499Z" fill="#d580bc" stroke="#d580bc" stroke-width="1.51"/><path d="M452,664L432,859L664,801Z" fill="#d75e93" stroke="#d75e93" stroke-width="1.51"/><path d="M311,490L343,613L452,664Z" fill="#dc77b1" stroke="#dc77b1" stroke-width="1.51"/><path d="M1020,853L1199,741L928,662Z" fill="#dd2074" stroke="#dd2074" stroke-width="1.51"/><path d="M1304,945L1199,741L1020,853Z" fill="#d0155c" stroke="#d0155c" stroke-width="1.51"/><path d="M829,174L615,150L811,261Z" fill="#d882bc" stroke="#d882bc" stroke-width="1.51"/><path d="M606,235L615,150L494,273Z" fill="#cf8ec4" stroke="#cf8ec4" stroke-width="1.51"/><path d="M317,755L432,859L452,664Z" fill="#d86a99" stroke="#d86a99" stroke-width="1.51"/><path d="M1164,603L1207,348L1077,497Z" fill="#dd4288" stroke="#dd4288" stroke-width="1.51"/><path d="M1410,518L1207,348L1164,603Z" fill="#d73d7d" stroke="#d73d7d" stroke-width="1.51"/><path d="M392,385L311,490L452,664Z" fill="#d97db8" stroke="#d97db8" stroke-width="1.51"/><path d="M432,859L436,915L614,955Z" fill="#c85b87" stroke="#c85b87" stroke-width="1.51"/><path d="M290,935L436,915L432,859Z" fill="#ca648b" stroke="#ca648b" stroke-width="1.51"/><path d="M343,613L317,755L452,664Z" fill="#dd6fa7" stroke="#dd6fa7" stroke-width="1.51"/><path d="M123,520L317,755L343,613Z" fill="#e17bb1" stroke="#e17bb1" stroke-width="1.51"/><path d="M393,66L353,311L494,273Z" fill="#cb9bca" stroke="#cb9bca" stroke-width="1.51"/><path d="M494,273L353,311L392,385Z" fill="#cf90c4" stroke="#cf90c4" stroke-width="1.51"/><path d="M392,385L353,311L311,490Z" fill="#d58dc2" stroke="#d58dc2" stroke-width="1.51"/><path d="M928,971L1069,1020L1020,853Z" fill="#ca1867" stroke="#ca1867" stroke-width="1.51"/><path d="M850,987L873,1073L928,971Z" fill="#c1286d" stroke="#c1286d" stroke-width="1.51"/><path d="M597,1144L873,1073L850,987Z" fill="#b83470" stroke="#b83470" stroke-width="1.51"/><path d="M597,1144L850,987L614,955Z" fill="#bc4079" stroke="#bc4079" stroke-width="1.51"/><path d="M1199,741L1284,692L1164,603Z" fill="#da1d6d" stroke="#da1d6d" stroke-width="1.51"/><path d="M1403,720L1284,692L1304,945Z" fill="#c81259" stroke="#c81259" stroke-width="1.51"/><path d="M984,1081L1069,1020L928,971Z" fill="#bf1665" stroke="#bf1665" stroke-width="1.51"/><path d="M873,1073L984,1081L928,971Z" fill="#be2068" stroke="#be2068" stroke-width="1.51"/><path d="M829,174L654,-18L615,150Z" fill="#da8fc4" stroke="#da8fc4" stroke-width="1.51"/><path d="M996,226L1034,37L829,174Z" fill="#df77af" stroke="#df77af" stroke-width="1.51"/><path d="M1076,41L1034,37L996,226Z" fill="#e078a9" stroke="#e078a9" stroke-width="1.51"/><path d="M1034,37L896,-14L829,174Z" fill="#e282b6" stroke="#e282b6" stroke-width="1.51"/><path d="M436,915L597,1144L614,955Z" fill="#bc5080" stroke="#bc5080" stroke-width="1.51"/><path d="M873,1073L1199,1197L984,1081Z" fill="#b21359" stroke="#b21359" stroke-width="1.51"/><path d="M377,1116L597,1144L436,915Z" fill="#b2567f" stroke="#b2567f" stroke-width="1.51"/><path d="M896,-14L654,-18L829,174Z" fill="#df8ec0" stroke="#df8ec0" stroke-width="1.51"/><path d="M615,150L393,66L494,273Z" fill="#ce9ac9" stroke="#ce9ac9" stroke-width="1.51"/><path d="M1285,202L1076,41L996,226Z" fill="#da709e" stroke="#da709e" stroke-width="1.51"/><path d="M1034,37L870,-137L896,-14Z" fill="#e88cba" stroke="#e88cba" stroke-width="1.51"/><path d="M317,755L290,935L432,859Z" fill="#d36a8f" stroke="#d36a8f" stroke-width="1.51"/><path d="M101,859L290,935L317,755Z" fill="#d67293" stroke="#d67293" stroke-width="1.51"/><path d="M1207,348L1285,202L996,226Z" fill="#d56394" stroke="#d56394" stroke-width="1.51"/><path d="M1529,265L1285,202L1207,348Z" fill="#c75c87" stroke="#c75c87" stroke-width="1.51"/><path d="M1284,692L1410,518L1164,603Z" fill="#d52771" stroke="#d52771" stroke-width="1.51"/><path d="M1403,720L1410,518L1284,692Z" fill="#cd1b6b" stroke="#cd1b6b" stroke-width="1.51"/><path d="M1304,945L1284,692L1199,741Z" fill="#cf145b" stroke="#cf145b" stroke-width="1.51"/><path d="M654,-18L393,66L615,150Z" fill="#d49ecc" stroke="#d49ecc" stroke-width="1.51"/><path d="M353,311L123,520L311,490Z" fill="#da8ec3" stroke="#da8ec3" stroke-width="1.51"/><path d="M1285,1110L1304,945L1069,1020Z" fill="#b50a4f" stroke="#b50a4f" stroke-width="1.51"/><path d="M1069,1020L1304,945L1020,853Z" fill="#c5135b" stroke="#c5135b" stroke-width="1.51"/><path d="M311,490L123,520L343,613Z" fill="#de84ba" stroke="#de84ba" stroke-width="1.51"/><path d="M159,192L123,520L353,311Z" fill="#d59dcb" stroke="#d59dcb" stroke-width="1.51"/><path d="M290,935L332,1069L436,915Z" fill="#c16389" stroke="#c16389" stroke-width="1.51"/><path d="M185,1024L332,1069L290,935Z" fill="#bd6789" stroke="#bd6789" stroke-width="1.51"/><path d="M332,1069L377,1116L436,915Z" fill="#b75d85" stroke="#b75d85" stroke-width="1.51"/><path d="M1417,96L1336,113L1285,202Z" fill="#ca6a8d" stroke="#ca6a8d" stroke-width="1.51"/><path d="M1403,720L1489,567L1410,518Z" fill="#c5236c" stroke="#c5236c" stroke-width="1.51"/><path d="M1468,757L1489,567L1403,720Z" fill="#c11562" stroke="#c11562" stroke-width="1.51"/><path d="M1304,945L1468,757L1403,720Z" fill="#c00e54" stroke="#c00e54" stroke-width="1.51"/><path d="M1151,-58L870,-137L1034,37Z" fill="#e889b3" stroke="#e889b3" stroke-width="1.51"/><path d="M896,-14L870,-137L654,-18Z" fill="#e597c4" stroke="#e597c4" stroke-width="1.51"/><path d="M654,-18L386,-25L393,66Z" fill="#d2abd2" stroke="#d2abd2" stroke-width="1.51"/><path d="M1151,-58L1034,37L1076,41Z" fill="#e280a8" stroke="#e280a8" stroke-width="1.51"/><path d="M226,65L159,192L353,311Z" fill="#d0aad2" stroke="#d0aad2" stroke-width="1.51"/><path d="M381,-231L386,-25L654,-18Z" fill="#d7b5d8" stroke="#d7b5d8" stroke-width="1.51"/><path d="M1285,202L1336,113L1076,41Z" fill="#d77093" stroke="#d77093" stroke-width="1.51"/><path d="M1529,265L1207,348L1410,518Z" fill="#c74b80" stroke="#c74b80" stroke-width="1.51"/><path d="M1336,113L1151,-58L1076,41Z" fill="#dd7a9c" stroke="#dd7a9c" stroke-width="1.51"/><path d="M226,65L353,311L393,66Z" fill="#cfa9d1" stroke="#cfa9d1" stroke-width="1.51"/><path d="M1304,945L1537,1047L1468,757Z" fill="#ae064a" stroke="#ae064a" stroke-width="1.51"/><path d="M1199,1197L1285,1110L1069,1020Z" fill="#ab0a4a" stroke="#ab0a4a" stroke-width="1.51"/><path d="M1199,1197L1069,1020L984,1081Z" fill="#b11055" stroke="#b11055" stroke-width="1.51"/><path d="M39,612L101,859L317,755Z" fill="#e17ea5" stroke="#e17ea5" stroke-width="1.51"/><path d="M332,1069L38,1129L377,1116Z" fill="#b26481" stroke="#b26481" stroke-width="1.51"/><path d="M1489,567L1524,498L1410,518Z" fill="#c03171" stroke="#c03171" stroke-width="1.51"/><path d="M1659,575L1524,498L1489,567Z" fill="#b82b69" stroke="#b82b69" stroke-width="1.51"/><path d="M-55,470L39,612L123,520Z" fill="#e697c2" stroke="#e697c2" stroke-width="1.51"/><path d="M123,520L39,612L317,755Z" fill="#e583b4" stroke="#e583b4" stroke-width="1.51"/><path d="M597,1144L1199,1197L873,1073Z" fill="#b02461" stroke="#b02461" stroke-width="1.51"/><path d="M101,859L185,1024L290,935Z" fill="#cb7190" stroke="#cb7190" stroke-width="1.51"/><path d="M386,-25L226,65L393,66Z" fill="#d3b2d6" stroke="#d3b2d6" stroke-width="1.51"/><path d="M902,-216L819,-193L870,-137Z" fill="#ed9ec6" stroke="#ed9ec6" stroke-width="1.51"/><path d="M870,-137L819,-193L654,-18Z" fill="#e79fc9" stroke="#e79fc9" stroke-width="1.51"/><path d="M819,-193L697,-208L654,-18Z" fill="#e7a6cf" stroke="#e7a6cf" stroke-width="1.51"/><path d="M309,-154L146,59L226,65Z" fill="#d7bedd" stroke="#d7bedd" stroke-width="1.51"/><path d="M1336,113L1391,-6L1151,-58Z" fill="#d57895" stroke="#d57895" stroke-width="1.51"/><path d="M1529,265L1417,96L1285,202Z" fill="#c16288" stroke="#c16288" stroke-width="1.51"/><path d="M1151,-58L902,-216L870,-137Z" fill="#ee93bc" stroke="#ee93bc" stroke-width="1.51"/><path d="M819,-193L902,-216L697,-208Z" fill="#eca3ca" stroke="#eca3ca" stroke-width="1.51"/><path d="M1144,-208L902,-216L1151,-58Z" fill="#ec91b2" stroke="#ec91b2" stroke-width="1.51"/><path d="M1524,498L1529,265L1410,518Z" fill="#bd3f79" stroke="#bd3f79" stroke-width="1.51"/><path d="M1524,498L1658,348L1529,265Z" fill="#b24676" stroke="#b24676" stroke-width="1.51"/><path d="M1468,757L1586,711L1489,567Z" fill="#bb1360" stroke="#bb1360" stroke-width="1.51"/><path d="M1727,910L1586,711L1468,757Z" fill="#ac0b4b" stroke="#ac0b4b" stroke-width="1.51"/><path d="M309,-154L226,65L386,-25Z" fill="#d7bbdb" stroke="#d7bbdb" stroke-width="1.51"/><path d="M226,65L146,59L159,192Z" fill="#d4b7d9" stroke="#d4b7d9" stroke-width="1.51"/><path d="M159,192L-55,470L123,520Z" fill="#dea1cd" stroke="#dea1cd" stroke-width="1.51"/><path d="M1442,-81L1391,-6L1417,96Z" fill="#c97591" stroke="#c97591" stroke-width="1.51"/><path d="M1417,96L1391,-6L1336,113Z" fill="#c96f8e" stroke="#c96f8e" stroke-width="1.51"/><path d="M-91,196L-55,470L159,192Z" fill="#d9b2d6" stroke="#d9b2d6" stroke-width="1.51"/><path d="M39,612L-46,805L101,859Z" fill="#e586a7" stroke="#e586a7" stroke-width="1.51"/><path d="M1327,-267L1144,-208L1151,-58Z" fill="#e78da3" stroke="#e78da3" stroke-width="1.51"/><path d="M101,859L1,1036L185,1024Z" fill="#c97692" stroke="#c97692" stroke-width="1.51"/><path d="M-130,689L-46,805L39,612Z" fill="#eb8fb2" stroke="#eb8fb2" stroke-width="1.51"/><path d="M381,-231L309,-154L386,-25Z" fill="#dbc2de" stroke="#dbc2de" stroke-width="1.51"/><path d="M1586,711L1659,575L1489,567Z" fill="#b71c61" stroke="#b71c61" stroke-width="1.51"/><path d="M1285,1110L1537,1047L1304,945Z" fill="#a40347" stroke="#a40347" stroke-width="1.51"/><path d="M1586,711L1821,649L1659,575Z" fill="#ac1357" stroke="#ac1357" stroke-width="1.51"/><path d="M1573,1083L1537,1047L1285,1110Z" fill="#95013f" stroke="#95013f" stroke-width="1.51"/><path d="M142,-292L381,-231L697,-208Z" fill="#dec4e0" stroke="#dec4e0" stroke-width="1.51"/><path d="M697,-208L381,-231L654,-18Z" fill="#e0b2d6" stroke="#e0b2d6" stroke-width="1.51"/><path d="M1716,461L1658,348L1524,498Z" fill="#af3b6e" stroke="#af3b6e" stroke-width="1.51"/><path d="M1596,-136L1442,-81L1417,96Z" fill="#c47690" stroke="#c47690" stroke-width="1.51"/><path d="M185,1024L38,1129L332,1069Z" fill="#b76b86" stroke="#b76b86" stroke-width="1.51"/><path d="M-46,805L1,1036L101,859Z" fill="#d88199" stroke="#d88199" stroke-width="1.51"/><path d="M-207,930L-70,1164L1,1036Z" fill="#c68093" stroke="#c68093" stroke-width="1.51"/><path d="M-55,470L-130,689L39,612Z" fill="#ec98c0" stroke="#ec98c0" stroke-width="1.51"/><path d="M1596,-136L1417,96L1738,27Z" fill="#b76e87" stroke="#b76e87" stroke-width="1.51"/><path d="M1391,-6L1327,-267L1151,-58Z" fill="#dd859c" stroke="#dd859c" stroke-width="1.51"/><path d="M1,1036L38,1129L185,1024Z" fill="#bd738c" stroke="#bd738c" stroke-width="1.51"/><path d="M377,1116L-70,1164L597,1144Z" fill="#ab5f7c" stroke="#ab5f7c" stroke-width="1.51"/><path d="M597,1144L-253,1213L1199,1197Z" fill="#a34c70" stroke="#a34c70" stroke-width="1.51"/><path d="M1659,575L1716,461L1524,498Z" fill="#b02f67" stroke="#b02f67" stroke-width="1.51"/><path d="M1738,27L1417,96L1529,265Z" fill="#b36282" stroke="#b36282" stroke-width="1.51"/><path d="M1821,649L1716,461L1659,575Z" fill="#a7255b" stroke="#a7255b" stroke-width="1.51"/><path d="M1537,1047L1727,910L1468,757Z" fill="#a20443" stroke="#a20443" stroke-width="1.51"/><path d="M1199,1197L1573,1083L1285,1110Z" fill="#9a033f" stroke="#9a033f" stroke-width="1.51"/><path d="M244,-211L54,-25L309,-154Z" fill="#decce4" stroke="#decce4" stroke-width="1.51"/><path d="M309,-154L54,-25L146,59Z" fill="#dac6e1" stroke="#dac6e1" stroke-width="1.51"/><path d="M146,59L-91,196L159,192Z" fill="#d7badb" stroke="#d7badb" stroke-width="1.51"/><path d="M-55,470L-163,453L-130,689Z" fill="#ec9fc7" stroke="#ec9fc7" stroke-width="1.51"/><path d="M381,-231L244,-211L309,-154Z" fill="#dec8e2" stroke="#dec8e2" stroke-width="1.51"/><path d="M54,-25L-91,196L146,59Z" fill="#dac4df" stroke="#dac4df" stroke-width="1.51"/><path d="M-91,196L-163,453L-55,470Z" fill="#e3afd5" stroke="#e3afd5" stroke-width="1.51"/><path d="M902,-216L142,-292L697,-208Z" fill="#e4b6d8" stroke="#e4b6d8" stroke-width="1.51"/><path d="M1144,-208L1327,-267L902,-216Z" fill="#ed92ae" stroke="#ed92ae" stroke-width="1.51"/><path d="M1442,-81L1327,-267L1391,-6Z" fill="#d38298" stroke="#d38298" stroke-width="1.51"/><path d="M1573,1083L1727,910L1537,1047Z" fill="#8f003c" stroke="#8f003c" stroke-width="1.51"/><path d="M1573,1083L1662,1106L1727,910Z" fill="#890038" stroke="#890038" stroke-width="1.51"/><path d="M1199,1197L1662,1106L1573,1083Z" fill="#8e003a" stroke="#8e003a" stroke-width="1.51"/><path d="M1,1036L-70,1164L38,1129Z" fill="#bb7889" stroke="#bb7889" stroke-width="1.51"/><path d="M38,1129L-70,1164L377,1116Z" fill="#b26d82" stroke="#b26d82" stroke-width="1.51"/><path d="M-207,930L1,1036L-46,805Z" fill="#d8869b" stroke="#d8869b" stroke-width="1.51"/><path d="M-229,844L-46,805L-130,689Z" fill="#ea90a9" stroke="#ea90a9" stroke-width="1.51"/><path d="M1738,27L1529,265L1835,148Z" fill="#a55c76" stroke="#a55c76" stroke-width="1.51"/><path d="M1727,910L1821,649L1586,711Z" fill="#a30c47" stroke="#a30c47" stroke-width="1.51"/><path d="M1917,510L1821,649L1893,876Z" fill="#a3104e" stroke="#a3104e" stroke-width="1.51"/><path d="M54,-25L-109,23L-91,196Z" fill="#ddcce4" stroke="#ddcce4" stroke-width="1.51"/><path d="M-287,266L-286,565L-163,453Z" fill="#ebafd4" stroke="#ebafd4" stroke-width="1.51"/><path d="M-137,-17L-109,23L54,-25Z" fill="#e1d4e8" stroke="#e1d4e8" stroke-width="1.51"/><path d="M-286,565L-229,844L-130,689Z" fill="#f196b6" stroke="#f196b6" stroke-width="1.51"/><path d="M-286,565L-130,689L-163,453Z" fill="#f09fc6" stroke="#f09fc6" stroke-width="1.51"/><path d="M-229,844L-207,930L-46,805Z" fill="#e48d9f" stroke="#e48d9f" stroke-width="1.51"/><path d="M-287,266L-163,453L-91,196Z" fill="#e0bada" stroke="#e0bada" stroke-width="1.51"/><path d="M1327,-267L142,-292L902,-216Z" fill="#eea6cc" stroke="#eea6cc" stroke-width="1.51"/><path d="M381,-231L142,-292L244,-211Z" fill="#e1cee5" stroke="#e1cee5" stroke-width="1.51"/><path d="M244,-211L142,-292L54,-25Z" fill="#e2d3e7" stroke="#e2d3e7" stroke-width="1.51"/><path d="M1442,-81L1541,-214L1327,-267Z" fill="#d08498" stroke="#d08498" stroke-width="1.51"/><path d="M1529,265L1658,348L1835,148Z" fill="#a35274" stroke="#a35274" stroke-width="1.51"/><path d="M1596,-136L1541,-214L1442,-81Z" fill="#c47e92" stroke="#c47e92" stroke-width="1.51"/><path d="M-39,-220L-137,-17L54,-25Z" fill="#e5daec" stroke="#e5daec" stroke-width="1.51"/><path d="M-293,108L-287,266L-91,196Z" fill="#dfc7e1" stroke="#dfc7e1" stroke-width="1.51"/><path d="M1596,-136L1735,-185L1541,-214Z" fill="#bc7c8a" stroke="#bc7c8a" stroke-width="1.51"/><path d="M1835,148L1658,348L1904,244Z" fill="#9c506d" stroke="#9c506d" stroke-width="1.51"/><path d="M-293,108L-91,196L-109,23Z" fill="#e0cce4" stroke="#e0cce4" stroke-width="1.51"/><path d="M1904,244L1658,348L1716,461Z" fill="#a04368" stroke="#a04368" stroke-width="1.51"/><path d="M1821,649L1917,510L1716,461Z" fill="#a4285b" stroke="#a4285b" stroke-width="1.51"/><path d="M1893,876L1821,649L1727,910Z" fill="#9b083d" stroke="#9b083d" stroke-width="1.51"/><path d="M-137,-17L-293,108L-109,23Z" fill="#e3d4e8" stroke="#e3d4e8" stroke-width="1.51"/><path d="M142,-292L-39,-220L54,-25Z" fill="#e5daeb" stroke="#e5daeb" stroke-width="1.51"/><path d="M1884,972L1893,876L1727,910Z" fill="#8e0336" stroke="#8e0336" stroke-width="1.51"/><path d="M1917,510L1904,244L1716,461Z" fill="#a23c65" stroke="#a23c65" stroke-width="1.51"/><path d="M1876,1106L1884,972L1727,910Z" fill="#840132" stroke="#840132" stroke-width="1.51"/><path d="M-287,266L-293,108L-286,565Z" fill="#e4bcdc" stroke="#e4bcdc" stroke-width="1.51"/><path d="M-236,-148L-293,108L-137,-17Z" fill="#e7dbec" stroke="#e7dbec" stroke-width="1.51"/><path d="M1827,-53L1738,27L1835,148Z" fill="#a46476" stroke="#a46476" stroke-width="1.51"/><path d="M1827,-53L1735,-185L1738,27Z" fill="#aa6f7c" stroke="#aa6f7c" stroke-width="1.51"/><path d="M1738,27L1735,-185L1596,-136Z" fill="#b27482" stroke="#b27482" stroke-width="1.51"/><path d="M1541,-214L1871,-272L1327,-267Z" fill="#c38190" stroke="#c38190" stroke-width="1.51"/><path d="M1904,244L1827,-53L1835,148Z" fill="#a15d73" stroke="#a15d73" stroke-width="1.51"/><path d="M1662,1106L1876,1106L1727,910Z" fill="#7e0030" stroke="#7e0030" stroke-width="1.51"/><path d="M1884,972L1876,1106L1893,876Z" fill="#850133" stroke="#850133" stroke-width="1.51"/><path d="M1199,1197L1876,1106L1662,1106Z" fill="#830033" stroke="#830033" stroke-width="1.51"/><path d="M-70,1164L-253,1213L597,1144Z" fill="#ae6d7f" stroke="#ae6d7f" stroke-width="1.51"/><path d="M-207,930L-253,1213L-70,1164Z" fill="#c1808f" stroke="#c1808f" stroke-width="1.51"/><path d="M-229,844L-253,1213L-207,930Z" fill="#d28799" stroke="#d28799" stroke-width="1.51"/><path d="M-286,565L-253,1213L-229,844Z" fill="#e58fa1" stroke="#e58fa1" stroke-width="1.51"/><path d="M-39,-220L-236,-148L-137,-17Z" fill="#e9e3f0" stroke="#e9e3f0" stroke-width="1.51"/><path d="M-241,-306L-236,-148L-39,-220Z" fill="#eee9f3" stroke="#eee9f3" stroke-width="1.51"/><path d="M142,-292L-241,-306L-39,-220Z" fill="#ece7f2" stroke="#ece7f2" stroke-width="1.51"/><path d="M-236,-148L-241,-306L-293,108Z" fill="#ece6f2" stroke="#ece6f2" stroke-width="1.51"/><path d="M1871,-272L-241,-306L142,-292Z" fill="#e6b7d9" stroke="#e6b7d9" stroke-width="1.51"/><path d="M1904,244L1871,-272L1827,-53Z" fill="#a76a7a" stroke="#a76a7a" stroke-width="1.51"/><path d="M1827,-53L1871,-272L1735,-185Z" fill="#ae777f" stroke="#ae777f" stroke-width="1.51"/><path d="M1735,-185L1871,-272L1541,-214Z" fill="#b57b84" stroke="#b57b84" stroke-width="1.51"/><path d="M1327,-267L1871,-272L142,-292Z" fill="#ef95b0" stroke="#ef95b0" stroke-width="1.51"/></svg>